<!--?xml version="1.0" encoding="utf-8"?-->
<!-- Generator: Adobe Illustrator 28.0.0, SVG Export Plug-In . SVG Version: 6.00 Build 0)  -->
<svg xml:space="preserve" style="enable-background:new 0 0 1158 390;" viewBox="0 0 1158 390" y="0px" x="0px" xmlns:xlink="http://www.w3.org/1999/xlink" xmlns="http://www.w3.org/2000/svg" id="Layer_1" version="1.1">
<style type="text/css">
	.st0{fill:#FFFFFF;}
</style>
<g>
	<g>
		<g>
			<g>
				<g>
					<path d="M98.97,228.91v-13.77h55.31c2.92,0,5.02-0.41,6.3-1.23c1.28-0.82,1.92-2.47,1.92-4.97v-3.95
						c0-2.28-0.64-3.9-1.92-4.86c-1.28-0.96-3.35-1.44-6.19-1.44h-34.7c-4.06,0-7.42-0.37-10.09-1.12
						c-2.67-0.75-4.79-1.89-6.35-3.42c-1.57-1.53-2.65-3.45-3.26-5.77c-0.61-2.31-0.91-5.03-0.91-8.17v-3.63
						c0-3.7,0.39-6.87,1.17-9.5c0.78-2.63,1.99-4.75,3.63-6.35c1.64-1.6,3.77-2.78,6.41-3.52c2.63-0.75,5.77-1.12,9.4-1.12h57.66
						v13.77h-56.16c-2.49,0-4.32,0.48-5.5,1.44c-1.17,0.96-1.76,2.9-1.76,5.82v2.35c0,2.28,0.53,3.9,1.6,4.86
						c1.07,0.96,2.92,1.44,5.55,1.44h34.06c4.06,0,7.49,0.34,10.3,1.01c2.81,0.68,5.11,1.76,6.89,3.26
						c1.78,1.49,3.06,3.42,3.84,5.77c0.78,2.35,1.17,5.16,1.17,8.43v5.77c0,3.42-0.39,6.32-1.17,8.7c-0.78,2.38-2.07,4.32-3.84,5.82
						c-1.78,1.49-4.08,2.6-6.89,3.31c-2.81,0.71-6.25,1.07-10.3,1.07H98.97z" class="st0"></path>
					<path d="M196.67,228.91v-72.82h16.23v72.82H196.67z" class="st0"></path>
					<path d="M311.88,228.91l-30-27.87l-29.9,27.87h-22.64l41.85-37.69l-39.51-35.13h23.38l27.76,25.84l29.26-25.84
						h22.1l-39.61,35.02l40.89,37.8H311.88z" class="st0"></path>
				</g>
				<g>
					<path d="M749.53,163.56c0,2.63-1.03,4.88-3.1,6.73l-51.04,44.74h56.05v13.88h-75.17c-2.28,0-4.02-0.66-5.23-1.97
						c-1.21-1.32-1.81-3.04-1.81-5.18c0-2.7,1.1-5.02,3.31-6.94l52.1-44.74h-53.71v-13.99h71.54c2.28,0,4.02,0.73,5.23,2.19
						C748.92,159.74,749.53,161.5,749.53,163.56z" class="st0"></path>
					<path d="M796.4,228.91c-5.34,0-9.79-0.44-13.35-1.33c-3.56-0.89-6.41-2.31-8.54-4.27
						c-2.14-1.96-3.65-4.52-4.54-7.69c-0.89-3.17-1.33-7.06-1.33-11.69v-22.85c0-4.55,0.44-8.43,1.33-11.64
						c0.89-3.2,2.4-5.78,4.54-7.74c2.14-1.96,4.98-3.38,8.54-4.27c3.56-0.89,8.01-1.33,13.35-1.33h50.82v13.77H796.4
						c-2.35,0-4.27,0.2-5.77,0.59c-1.49,0.39-2.69,1.01-3.58,1.87c-0.89,0.85-1.49,1.99-1.81,3.42c-0.32,1.42-0.48,3.2-0.48,5.34
						v4.91h62.46v12.92h-62.46v5.13c0,2.21,0.16,4.02,0.48,5.45c0.32,1.43,0.91,2.56,1.76,3.42s2.05,1.44,3.58,1.76
						c1.53,0.32,3.47,0.48,5.82,0.48h50.82v13.77H796.4z" class="st0"></path>
					<path d="M925.38,228.91l-42.6-26.48v26.48h-16.12v-72.82h57.02c5.13,0,9.5,0.32,13.13,0.96
						c3.63,0.64,6.6,1.78,8.92,3.42c2.31,1.64,4,3.88,5.07,6.73c1.07,2.85,1.6,6.44,1.6,10.78V183c0,4.2-0.57,7.67-1.71,10.41
						c-1.14,2.74-2.9,4.91-5.29,6.51c-2.38,1.6-5.39,2.72-9.02,3.36c-3.63,0.64-7.94,0.96-12.92,0.96h-12.81l42.71,24.66H925.38z
						 M936.16,178.83c0-1.92-0.21-3.49-0.64-4.7c-0.43-1.21-1.14-2.14-2.14-2.78c-1-0.64-2.39-1.07-4.16-1.28
						c-1.78-0.21-3.99-0.32-6.62-0.32h-39.83v22.21h39.83c2.63,0,4.82-0.11,6.57-0.32c1.74-0.21,3.13-0.64,4.16-1.28
						c1.03-0.64,1.76-1.57,2.19-2.78c0.43-1.21,0.64-2.81,0.64-4.8V178.83z" class="st0"></path>
					<path d="M998.73,228.91c-5.34,0-9.79-0.44-13.35-1.33c-3.56-0.89-6.41-2.31-8.54-4.27
						c-2.14-1.96-3.65-4.52-4.54-7.69c-0.89-3.17-1.33-7.06-1.33-11.69v-22.85c0-4.55,0.44-8.43,1.33-11.64
						c0.89-3.2,2.4-5.78,4.54-7.74c2.14-1.96,4.98-3.38,8.54-4.27c3.56-0.89,8.01-1.33,13.35-1.33h27.65
						c5.41,0,9.89,0.45,13.45,1.33c3.56,0.89,6.41,2.31,8.54,4.27c2.14,1.96,3.65,4.54,4.54,7.74c0.89,3.2,1.33,7.08,1.33,11.64
						v22.85c0,4.63-0.45,8.53-1.33,11.69c-0.89,3.17-2.4,5.73-4.54,7.69c-2.13,1.96-4.98,3.38-8.54,4.27
						c-3.56,0.89-8.04,1.33-13.45,1.33H998.73z M1038.02,181.82c0-2.28-0.2-4.16-0.59-5.66c-0.39-1.49-1.05-2.7-1.98-3.63
						c-0.93-0.92-2.19-1.56-3.79-1.92c-1.6-0.36-3.58-0.53-5.93-0.53h-26.27c-2.56,0-4.64,0.18-6.25,0.53
						c-1.6,0.36-2.87,1-3.79,1.92c-0.93,0.93-1.55,2.14-1.87,3.63c-0.32,1.5-0.48,3.38-0.48,5.66v21.46c0,2.35,0.16,4.29,0.48,5.82
						c0.32,1.53,0.94,2.74,1.87,3.63c0.92,0.89,2.19,1.49,3.79,1.81c1.6,0.32,3.68,0.48,6.25,0.48h26.27c2.35,0,4.32-0.16,5.93-0.48
						c1.6-0.32,2.86-0.92,3.79-1.81c0.92-0.89,1.58-2.1,1.98-3.63c0.39-1.53,0.59-3.47,0.59-5.82V181.82z" class="st0"></path>
				</g>
			</g>
			<g>
				<path d="M703.33,253.43h11.06c2.19,0,3.95,0.62,5.29,1.86s2.02,2.98,2.02,5.22c0,1.93-0.6,3.61-1.8,5.04
					c-1.2,1.43-3.04,2.14-5.51,2.14h-7.72v10.45h-3.35V253.43z M716.32,256.83c-0.73-0.35-1.74-0.52-3.02-0.52h-6.61v8.56h6.61
					c1.49,0,2.7-0.32,3.63-0.96c0.93-0.64,1.39-1.77,1.39-3.38C718.32,258.71,717.66,257.48,716.32,256.83z" class="st0"></path>
				<path d="M739.05,253.43h3.38v24.71h-3.38V253.43z" class="st0"></path>
				<path d="M777.64,255.23c1.71,1.65,2.65,3.52,2.84,5.62h-3.26c-0.36-1.59-1.09-2.85-2.17-3.79
					c-1.08-0.93-2.61-1.4-4.57-1.4c-2.39,0-4.32,0.86-5.79,2.57c-1.47,1.71-2.21,4.33-2.21,7.87c0,2.9,0.66,5.24,1.99,7.05
					c1.33,1.8,3.31,2.7,5.94,2.7c2.42,0,4.27-0.95,5.54-2.84c0.67-1,1.17-2.31,1.5-3.94h3.26c-0.29,2.6-1.24,4.78-2.86,6.54
					c-1.94,2.12-4.56,3.18-7.85,3.18c-2.84,0-5.22-0.87-7.15-2.61c-2.54-2.3-3.81-5.85-3.81-10.65c0-3.65,0.95-6.64,2.86-8.97
					c2.06-2.54,4.9-3.8,8.53-3.8C773.53,252.76,775.93,253.58,777.64,255.23z" class="st0"></path>
				<path d="M797.34,253.43h3.26v12.1l12.36-12.1h4.68l-10.56,9.97l10.78,14.74h-4.38l-8.85-12.42l-4.03,3.8v8.61h-3.26
					V253.43z" class="st0"></path>
				<path d="M832.62,253.43h3.35v21.77h12.4v2.94h-15.75V253.43z" class="st0"></path>
				<path d="M864.4,253.43h17.93v3.03h-14.67v7.5h13.56v2.86h-13.56v8.38h14.92v2.94H864.4V253.43z" class="st0"></path>
				<path d="M899.27,253.43h10.68c2.91,0,4.98,0.86,6.21,2.59c0.72,1.02,1.08,2.2,1.08,3.53c0,1.56-0.44,2.84-1.33,3.84
					c-0.46,0.53-1.12,1.01-1.98,1.45c1.27,0.48,2.21,1.03,2.84,1.63c1.11,1.08,1.67,2.56,1.67,4.46c0,1.59-0.5,3.03-1.51,4.32
					c-1.5,1.93-3.89,2.89-7.16,2.89h-10.51V253.43z M908.71,263.88c1.43,0,2.54-0.2,3.33-0.59c1.25-0.62,1.87-1.73,1.87-3.33
					c0-1.62-0.66-2.7-1.99-3.26c-0.75-0.31-1.86-0.47-3.33-0.47h-6.03v7.65H908.71z M909.84,275.28c2.07,0,3.55-0.59,4.43-1.78
					c0.55-0.75,0.83-1.66,0.83-2.73c0-1.79-0.81-3.02-2.43-3.67c-0.86-0.35-2-0.52-3.41-0.52h-6.71v8.7H909.84z" class="st0"></path>
				<path d="M941.82,253.43h3.79l8.97,24.71h-3.67l-2.51-7.4h-9.77l-2.67,7.4h-3.43L941.82,253.43z M947.32,268.02
					l-3.75-10.92l-3.99,10.92H947.32z" class="st0"></path>
				<path d="M969.91,253.43h3.35v21.77h12.4v2.94h-15.75V253.43z" class="st0"></path>
				<path d="M1001.37,253.43h3.35v21.77h12.4v2.94h-15.75V253.43z" class="st0"></path>
			</g>
		</g>
	</g>
	<g>
		<g>
			<g>
				<g>
					<g>
						<path d="M456.47,271.37c-13.58-7.09-25.26-17.83-33.79-30.7l-1.57-2.44l-1.46-2.5c-0.5-0.83-0.95-1.68-1.39-2.54
							c-0.44-0.86-0.92-1.7-1.33-2.58c-1.71-3.47-3.17-7.06-4.48-10.71c-1.23-3.67-2.3-7.41-3.09-11.21
							c-0.75-3.8-1.4-7.64-1.67-11.52c-0.1-0.97-0.16-1.94-0.19-2.91c-0.04-0.97-0.11-1.94-0.12-2.91c0-1.94-0.04-3.89,0.08-5.83
							c0.13-3.89,0.6-7.76,1.24-11.6l0.52-2.87c0.2-0.95,0.43-1.9,0.64-2.85l0.33-1.42c0.12-0.47,0.26-0.94,0.38-1.41l0.78-2.81
							c1.18-3.71,2.46-7.39,4.07-10.94c1.52-3.59,3.4-7.01,5.36-10.38c0.5-0.84,1.05-1.65,1.57-2.47c0.53-0.81,1.03-1.66,1.61-2.44
							c1.14-1.58,2.24-3.2,3.48-4.7c2.37-3.1,5.05-5.95,7.77-8.74c2.82-2.7,5.7-5.33,8.83-7.67c3.07-2.4,6.36-4.52,9.7-6.53
							c1.71-0.94,3.38-1.95,5.14-2.78l2.62-1.3l2.68-1.18l1.34-0.59l1.36-0.52l2.73-1.05l2.77-0.92c0.92-0.31,1.85-0.62,2.79-0.86
							l2.82-0.78c0.94-0.26,1.9-0.44,2.85-0.67c1.89-0.47,3.82-0.77,5.74-1.1c7.7-1.24,15.55-1.42,23.3-0.74
							c7.75,0.7,15.39,2.47,22.71,5.06c7.3,2.64,14.3,6.12,20.73,10.46c6.42,4.33,12.3,9.46,17.44,15.23
							c5.12,5.79,9.5,12.2,13.03,19.03c0.89,1.7,1.66,3.47,2.49,5.2c0.77,1.76,1.44,3.56,2.16,5.34c0.63,1.81,1.2,3.65,1.79,5.46
							l1.45,5.55l-1.72-5.47c-0.69-1.78-1.34-3.58-2.05-5.34c-0.79-1.74-1.52-3.5-2.34-5.21c-0.89-1.68-1.71-3.4-2.65-5.06
							c-3.74-6.63-8.29-12.77-13.51-18.26c-10.38-11.04-23.5-19.34-37.77-24.16c-1.79-0.57-3.57-1.18-5.4-1.63l-2.73-0.72
							l-2.76-0.59c-1.83-0.44-3.7-0.67-5.55-0.99c-0.93-0.16-1.86-0.23-2.8-0.34c-0.93-0.09-1.86-0.24-2.8-0.29
							c-7.49-0.57-15.05-0.31-22.44,0.97c-14.79,2.47-28.99,8.57-40.84,17.76c-3.01,2.24-5.79,4.76-8.51,7.34
							c-2.63,2.67-5.21,5.4-7.5,8.37c-1.2,1.44-2.26,2.99-3.36,4.5c-0.57,0.75-1.04,1.56-1.56,2.34c-0.5,0.79-1.03,1.57-1.52,2.37
							l-1.41,2.44l-0.7,1.22l-0.64,1.25l-1.29,2.5c-0.43,0.83-0.79,1.7-1.18,2.55c-6.3,13.64-8.99,28.88-8.07,43.89
							c0.95,15.03,5.65,29.84,13.63,42.73c1.99,3.22,4.12,6.36,6.51,9.31c1.15,1.52,2.44,2.91,3.66,4.36
							c1.31,1.37,2.57,2.8,3.96,4.1C443.79,262.8,449.92,267.43,456.47,271.37z" class="st0"></path>
						<path d="M542.12,290.24c-16.64,7.19-35.22,9.89-53.37,8l-3.4-0.42c-1.13-0.14-2.25-0.37-3.38-0.55
							c-2.26-0.34-4.48-0.89-6.71-1.37c-4.43-1.12-8.84-2.38-13.1-4.05c-4.31-1.55-8.44-3.54-12.52-5.62
							c-4.01-2.22-7.98-4.53-11.69-7.23c-3.78-2.61-7.3-5.56-10.72-8.62c-1.65-1.6-3.36-3.13-4.9-4.84
							c-0.79-0.84-1.58-1.66-2.36-2.51l-2.24-2.62l-1.12-1.31l-1.06-1.36l-2.11-2.72l-1.98-2.82l-0.99-1.41l-0.93-1.45l-1.84-2.91
							c-0.59-0.99-1.14-2-1.71-2.99c-1.18-1.98-2.14-4.07-3.2-6.11c-1.94-4.17-3.75-8.41-5.14-12.8c-0.77-2.17-1.35-4.4-1.98-6.61
							c-0.33-1.1-0.54-2.24-0.81-3.35c-0.24-1.12-0.55-2.23-0.73-3.37c-1.72-9.03-2.46-18.29-1.85-27.48
							c0.58-9.19,2.27-18.31,5.17-27.05c2.87-8.73,6.71-17.18,11.71-24.91l1.88-2.89c0.65-0.95,1.34-1.87,2.01-2.8
							c1.31-1.89,2.8-3.64,4.23-5.44c0.71-0.9,1.51-1.73,2.26-2.6c0.78-0.85,1.5-1.75,2.32-2.55c1.61-1.64,3.19-3.31,4.9-4.84
							c3.33-3.17,6.95-6.01,10.64-8.74c1.91-1.28,3.75-2.64,5.74-3.8l2.94-1.8l3.01-1.66l1.51-0.83l1.54-0.76l3.09-1.51l3.16-1.37
							l1.58-0.68l1.61-0.61l3.21-1.21l3.27-1.06l1.63-0.53c0.55-0.17,1.1-0.3,1.66-0.46l3.32-0.89c4.46-1.03,8.95-1.94,13.5-2.4
							c2.26-0.31,4.55-0.42,6.83-0.58c1.14-0.1,2.28-0.07,3.42-0.11c1.14-0.01,2.28-0.08,3.42-0.03c2.28,0.09,4.56,0.1,6.83,0.35
							c1.14,0.1,2.27,0.18,3.41,0.3l3.39,0.46l1.69,0.23l1.68,0.31l3.36,0.62c1.11,0.24,2.22,0.52,3.32,0.78
							c1.1,0.27,2.22,0.5,3.3,0.84c2.18,0.65,4.38,1.23,6.51,2.03l3.21,1.13c1.06,0.4,2.12,0.82,3.16,1.26
							c4.18,1.76,8.25,3.78,12.17,6.05c-4.01-2.1-8.15-3.94-12.38-5.52c-1.06-0.39-2.12-0.79-3.18-1.15l-3.23-1.02
							c-2.14-0.72-4.33-1.24-6.51-1.81c-1.08-0.31-2.2-0.5-3.3-0.73c-1.1-0.22-2.2-0.47-3.31-0.67l-3.34-0.51l-1.67-0.26l-1.68-0.17
							l-3.35-0.35c-1.12-0.09-2.24-0.13-3.36-0.19c-2.24-0.17-4.49-0.11-6.73-0.13c-8.97,0.1-17.91,1.37-26.56,3.66l-3.22,0.94
							c-0.54,0.16-1.08,0.3-1.61,0.48l-1.59,0.54l-3.17,1.09l-3.12,1.23L461,92l-1.53,0.69l-3.05,1.38l-2.98,1.52l-1.49,0.76
							l-1.46,0.83l-2.91,1.66l-2.83,1.79c-1.91,1.16-3.68,2.52-5.52,3.79c-3.55,2.69-7.04,5.48-10.24,8.59
							c-1.65,1.5-3.16,3.14-4.71,4.74c-0.79,0.78-1.48,1.66-2.22,2.49c-0.72,0.85-1.49,1.66-2.17,2.54
							c-1.36,1.76-2.8,3.47-4.04,5.31c-0.64,0.91-1.3,1.81-1.92,2.73l-1.79,2.82c-4.77,7.52-8.48,15.68-11.22,24.15
							c-2.78,8.46-4.37,17.28-4.91,26.15c-0.62,8.88,0.07,17.82,1.7,26.55c1.67,8.74,4.53,17.24,8.27,25.31
							c7.59,16.11,19.23,30.33,33.68,40.83c3.57,2.68,7.4,5,11.27,7.22c3.95,2.09,7.95,4.09,12.13,5.71
							c4.13,1.73,8.42,3.05,12.73,4.25c2.18,0.52,4.34,1.11,6.55,1.49c1.1,0.2,2.2,0.46,3.31,0.62l3.33,0.5
							c4.45,0.57,8.93,0.97,13.43,0.97c2.25,0.07,4.49-0.07,6.75-0.13l3.37-0.26l1.68-0.13l1.68-0.21
							C524.82,295.62,533.64,293.4,542.12,290.24z" class="st0"></path>
						<path d="M615.81,231.35c-3.43,9.91-8.05,19.46-13.94,28.2c-5.91,8.71-12.87,16.77-20.87,23.68
							c-3.95,3.52-8.23,6.64-12.62,9.6l-3.35,2.13l-0.84,0.53l-0.86,0.49l-1.72,0.99c-2.27,1.36-4.65,2.53-7.01,3.73
							c-4.78,2.27-9.65,4.39-14.7,6.03c-2.49,0.91-5.06,1.57-7.61,2.32c-1.28,0.35-2.58,0.63-3.87,0.94
							c-1.29,0.31-2.58,0.63-3.89,0.85l-3.91,0.73c-1.31,0.22-2.63,0.37-3.94,0.56c-2.62,0.42-5.28,0.55-7.93,0.81
							c-1.33,0.09-2.65,0.11-3.98,0.16c-1.33,0.05-2.66,0.1-3.98,0.06l-3.99-0.06c-1.33-0.04-2.65-0.16-3.98-0.23
							c-10.62-0.67-21.11-2.89-31.19-6.28c-0.63-0.21-1.27-0.4-1.89-0.64l-1.86-0.71l-3.72-1.44l-3.65-1.63l-1.82-0.81
							c-0.61-0.28-1.19-0.6-1.79-0.89l-3.56-1.81c-1.18-0.62-2.32-1.31-3.48-1.96c-2.34-1.27-4.54-2.78-6.79-4.2
							c-4.39-3-8.68-6.18-12.65-9.74c-2.04-1.72-3.92-3.6-5.84-5.45c-0.97-0.91-1.84-1.92-2.77-2.88c-0.9-0.98-1.85-1.92-2.69-2.95
							c-14.05-16.03-23.73-35.79-27.99-56.64l-0.69-3.93l-0.34-1.97l-0.25-1.98l-0.49-3.96l-0.3-3.98l-0.15-1.99l-0.05-1.99
							l-0.1-3.99l0.09-3.99l0.05-1.99l0.14-1.99l0.29-3.98l0.48-3.96l0.24-1.98c0.09-0.66,0.22-1.31,0.33-1.97l0.69-3.93
							c1.11-5.19,2.38-10.36,4.14-15.37c3.45-10.03,8.08-19.67,13.96-28.49c5.86-8.82,12.88-16.87,20.81-23.85
							c15.9-13.92,35.38-23.67,55.99-27.74c-2.53,0.69-5.07,1.35-7.59,2.07c-2.48,0.86-4.98,1.64-7.43,2.55l-3.64,1.47l-1.82,0.73
							l-0.91,0.37l-0.89,0.42l-3.54,1.69c-1.18,0.57-2.37,1.09-3.5,1.76c-9.23,4.89-17.81,10.98-25.45,18.04
							c-15.37,14.06-26.83,32.18-33.22,51.9c-6.45,19.71-7.55,41.06-3.37,61.31c4.24,20.23,13.66,39.38,27.33,54.89
							c0.81,1.01,1.74,1.91,2.6,2.87c0.89,0.93,1.73,1.92,2.67,2.8c1.85,1.8,3.68,3.63,5.65,5.3c3.84,3.46,7.99,6.55,12.24,9.48
							c2.18,1.39,4.31,2.85,6.58,4.09c1.12,0.64,2.23,1.31,3.37,1.92l3.45,1.77c0.58,0.29,1.14,0.6,1.73,0.87l1.77,0.79l3.54,1.59
							l3.61,1.41l1.8,0.71c0.6,0.24,1.22,0.42,1.83,0.63c9.77,3.38,19.95,5.63,30.28,6.36c5.16,0.48,10.34,0.4,15.51,0.22
							c2.58-0.21,5.17-0.29,7.74-0.66c1.28-0.16,2.58-0.29,3.86-0.48l3.83-0.65c1.28-0.19,2.55-0.48,3.81-0.76
							c1.26-0.29,2.54-0.53,3.79-0.86c2.5-0.7,5.02-1.3,7.48-2.15c4.96-1.52,9.77-3.52,14.5-5.67c2.33-1.15,4.69-2.25,6.94-3.55
							l1.71-0.94l0.85-0.47l0.83-0.51l3.32-2.04c4.36-2.83,8.61-5.85,12.58-9.23c8.06-6.6,15.15-14.37,21.24-22.86
							c0.79-1.04,1.46-2.16,2.2-3.24l1.08-1.63l0.54-0.82l0.5-0.84c1.33-2.25,2.71-4.48,3.88-6.82
							C611.81,241.05,613.86,236.22,615.81,231.35z" class="st0"></path>
					</g>
					<g>
						<path d="M473.28,229.6c-4.47,0-8.2-0.37-11.19-1.12c-2.98-0.75-5.37-1.94-7.16-3.58
							c-1.79-1.64-3.06-3.79-3.8-6.44c-0.75-2.65-1.12-5.92-1.12-9.8v-19.15c0-3.82,0.37-7.07,1.12-9.75
							c0.75-2.68,2.01-4.85,3.8-6.49c1.79-1.64,4.18-2.83,7.16-3.58c2.98-0.75,6.71-1.12,11.19-1.12h42.08v11.54h-41.63
							c-1.97,0-3.59,0.13-4.88,0.4c-1.28,0.27-2.33,0.76-3.13,1.48c-0.81,0.72-1.37,1.69-1.7,2.91c-0.33,1.22-0.49,2.76-0.49,4.61
							v3.04h44.92c3.1,0,5.71,0.39,7.83,1.16c2.12,0.78,3.85,1.88,5.19,3.31c1.34,1.43,2.31,3.18,2.91,5.24
							c0.6,2.06,0.9,4.37,0.9,6.94v3.76c0,5.61-1.27,9.78-3.8,12.53c-2.54,2.74-6.88,4.12-13.02,4.12H473.28z M511.76,209.02
							c0-2.39-0.43-4.03-1.3-4.92c-0.86-0.89-2.37-1.34-4.52-1.34h-42.42v6.17c0,1.97,0.18,3.57,0.54,4.79
							c0.36,1.22,1.01,2.18,1.97,2.86c0.95,0.69,2.25,1.13,3.89,1.34c1.64,0.21,3.74,0.31,6.31,0.31h29.71
							c2.09,0,3.58-0.46,4.47-1.39c0.9-0.92,1.34-2.4,1.34-4.43V209.02z" class="st0"></path>
						<path d="M538.16,229.6c-1.67,0-2.85-0.31-3.53-0.94c-0.69-0.63-1.03-1.66-1.03-3.09v-7.34
							c0-1.37,0.34-2.39,1.03-3.04c0.68-0.66,1.86-0.98,3.53-0.98h4.38c1.73,0,2.94,0.33,3.62,0.98c0.68,0.66,1.03,1.67,1.03,3.04
							v7.34c0,1.43-0.34,2.46-1.03,3.09c-0.69,0.63-1.9,0.94-3.62,0.94H538.16z" class="st0"></path>
						<path d="M578.78,229.6c-4.47,0-8.2-0.37-11.19-1.12c-2.99-0.75-5.37-1.94-7.16-3.58
							c-1.79-1.64-3.06-3.79-3.8-6.44c-0.75-2.65-1.12-5.92-1.12-9.8v-19.15c0-3.82,0.37-7.07,1.12-9.75
							c0.75-2.68,2.01-4.85,3.8-6.49c1.79-1.64,4.18-2.83,7.16-3.58c2.98-0.75,6.71-1.12,11.19-1.12h23.8
							c4.53,0,8.29,0.37,11.28,1.12c2.98,0.75,5.37,1.94,7.16,3.58c1.79,1.64,3.06,3.8,3.8,6.49c0.75,2.68,1.12,5.94,1.12,9.75
							v19.15c0,3.88-0.37,7.15-1.12,9.8c-0.75,2.66-2.01,4.8-3.8,6.44c-1.79,1.64-4.18,2.83-7.16,3.58
							c-2.98,0.75-6.74,1.12-11.28,1.12H578.78z M612.34,190.14c0-1.91-0.17-3.49-0.49-4.74c-0.33-1.25-0.88-2.27-1.65-3.04
							c-0.78-0.77-1.83-1.31-3.18-1.61c-1.34-0.3-3-0.45-4.97-0.45h-22.64c-2.15,0-3.89,0.15-5.23,0.45
							c-1.34,0.3-2.4,0.84-3.18,1.61c-0.78,0.78-1.3,1.79-1.57,3.04c-0.27,1.25-0.4,2.83-0.4,4.74v17.99c0,1.97,0.14,3.59,0.4,4.88
							c0.27,1.28,0.79,2.3,1.57,3.04c0.77,0.75,1.83,1.25,3.18,1.52c1.34,0.27,3.09,0.4,5.23,0.4h22.64c1.97,0,3.62-0.13,4.97-0.4
							c1.34-0.27,2.4-0.77,3.18-1.52c0.77-0.75,1.33-1.76,1.65-3.04c0.33-1.28,0.49-2.91,0.49-4.88V190.14z" class="st0"></path>
					</g>
				</g>
			</g>
		</g>
		<g>
			<path d="M612.34,155.54c0,4.36-3.43,7.79-7.88,7.79c-4.41,0-7.93-3.43-7.93-7.79c0-4.27,3.52-7.69,7.93-7.69
				C608.92,147.85,612.34,151.27,612.34,155.54z M598.5,155.54c0,3.43,2.53,6.15,6.01,6.15c3.38,0,5.87-2.72,5.87-6.1
				c0-3.42-2.49-6.19-5.91-6.19C601.03,149.39,598.5,152.16,598.5,155.54z M603.24,159.58h-1.78v-7.7c0.7-0.14,1.69-0.23,2.96-0.23
				c1.45,0,2.11,0.23,2.68,0.56c0.42,0.33,0.75,0.94,0.75,1.69c0,0.84-0.66,1.5-1.6,1.78v0.09c0.75,0.28,1.17,0.84,1.41,1.88
				c0.23,1.17,0.38,1.64,0.56,1.92h-1.92c-0.23-0.28-0.38-0.99-0.61-1.88c-0.14-0.84-0.61-1.22-1.6-1.22h-0.84V159.58z
				 M603.29,155.21h0.84c0.99,0,1.78-0.33,1.78-1.13c0-0.7-0.52-1.17-1.64-1.17c-0.47,0-0.8,0.05-0.99,0.09V155.21z" class="st0"></path>
		</g>
	</g>
</g>
</svg>
